<svg width="43" height="43" viewBox="0 0 43 43" fill="none" xmlns="http://www.w3.org/2000/svg">
<path d="M22.8342 42.75H2.35947C1.05599 42.75 0 41.6934 0 40.3904V2.35945C0 1.05615 1.05616 0 2.35947 0H40.3907C41.6937 0 42.75 1.05615 42.75 2.35945V40.3904C42.75 41.6935 41.6935 42.75 40.3907 42.75H29.4969V26.1948H35.0537L35.8857 19.743H29.4969V15.6239C29.4969 13.756 30.0156 12.483 32.6942 12.483L36.1107 12.4815V6.71094C35.5198 6.63231 33.4918 6.45665 31.1323 6.45665C26.2065 6.45665 22.8342 9.46336 22.8342 14.985V19.743H17.2631V26.1948H22.8342V42.75Z" fill="#3A3A3C"/>
</svg>
