<svg width="101" height="73" fill="none" xmlns="http://www.w3.org/2000/svg"><path d="M92.048 55.157c-18.4 21.6-38.666 18.333-46.5 14-2-16.5 18.5-32.5 28.5-40 8-6 11.334-12.834 12-15.5-3 7-14 12-29.5 24-12.4 9.6-15.166 22.666-15 28-3-2-8-33 16-45.5 19.2-10 28.334-17.5 30.5-20 19.6 24.8 10.834 47 4 55z" fill="#A77B5B"/><path d="M35.048 49.657c-.8 8.8 2.667 17.333 4.5 20.5-11.5 3-28.5-1.5-37-19.5-6.8-14.4 2.167-30 7.5-36 2 2.8 7.167 6.5 9.5 8 7.2 3.6 16 9.166 19.5 11.5-2 2.8-3.166 8.833-3.5 11.5-.333-.667-2.9-3.2-10.5-8s-12.5-10-14-12c2.4 6.4 17 18.666 24 24z" fill="#A77B5B"/><path d="M92.048 55.157c-18.4 21.6-38.666 18.333-46.5 14-2-16.5 18.5-32.5 28.5-40 8-6 11.334-12.834 12-15.5-3 7-14 12-29.5 24-12.4 9.6-15.166 22.666-15 28-3-2-8-33 16-45.5 19.2-10 28.334-17.5 30.5-20 19.6 24.8 10.834 47 4 55z" stroke="#A77B5B" stroke-width=".2"/><path d="M35.048 49.657c-.8 8.8 2.667 17.333 4.5 20.5-11.5 3-28.5-1.5-37-19.5-6.8-14.4 2.167-30 7.5-36 2 2.8 7.167 6.5 9.5 8 7.2 3.6 16 9.166 19.5 11.5-2 2.8-3.166 8.833-3.5 11.5-.333-.667-2.9-3.2-10.5-8s-12.5-10-14-12c2.4 6.4 17 18.666 24 24z" stroke="#A77B5B" stroke-width=".2"/></svg>