<svg width="43" height="43" viewBox="0 0 43 43" fill="none" xmlns="http://www.w3.org/2000/svg">
<path d="M21.375 0C27.1797 0 27.9079 0.0248964 30.1875 0.128906C32.4624 0.232663 34.0165 0.59373 35.376 1.12207C36.7816 1.66824 37.9737 2.39959 39.1621 3.58789C40.3504 4.77627 41.0817 5.96843 41.6279 7.37402C42.1562 8.73353 42.5173 10.2876 42.6211 12.5625C42.7251 14.8421 42.75 15.5702 42.75 21.375C42.75 27.1797 42.7251 27.9079 42.6211 30.1875C42.5173 32.4624 42.1562 34.0165 41.6279 35.376C41.0817 36.7816 40.3504 37.9737 39.1621 39.1621C37.9737 40.3504 36.7816 41.0817 35.376 41.6279C34.0165 42.1562 32.4624 42.5173 30.1875 42.6211C27.9079 42.7251 27.1797 42.75 21.375 42.75C15.5702 42.75 14.8421 42.7251 12.5625 42.6211C10.2876 42.5173 8.73353 42.1562 7.37402 41.6279C5.96843 41.0817 4.77627 40.3504 3.58789 39.1621C2.39959 37.9737 1.66824 36.7816 1.12207 35.376C0.59373 34.0165 0.232663 32.4624 0.128906 30.1875C0.0248964 27.9079 0 27.1797 0 21.375C1.21609e-07 15.5702 0.0248967 14.8421 0.128906 12.5625C0.232663 10.2876 0.59373 8.73353 1.12207 7.37402C1.66824 5.96843 2.39959 4.77627 3.58789 3.58789C4.77627 2.39959 5.96843 1.66824 7.37402 1.12207C8.73353 0.59373 10.2876 0.232663 12.5625 0.128906C14.8421 0.0248967 15.5702 1.216e-07 21.375 0ZM21.375 3.85156C15.6676 3.85156 14.9912 3.87275 12.7373 3.97559C10.6534 4.07063 9.52173 4.4192 8.76855 4.71191C7.77082 5.09967 7.05848 5.56253 6.31055 6.31055C5.56253 7.05848 5.09967 7.77082 4.71191 8.76855C4.4192 9.52173 4.07063 10.6534 3.97559 12.7373C3.87275 14.9912 3.85156 15.6676 3.85156 21.375C3.85156 27.0818 3.87277 27.7582 3.97559 30.0117C4.07062 32.0958 4.41919 33.2282 4.71191 33.9814C5.0996 34.9789 5.56286 35.6907 6.31055 36.4385C7.05848 37.1865 7.77082 37.6503 8.76855 38.0381C9.52173 38.3308 10.6535 38.6784 12.7373 38.7734C14.991 38.8763 15.6672 38.8984 21.375 38.8984C27.0823 38.8984 27.7585 38.8763 30.0117 38.7734C32.0958 38.6784 33.2282 38.3308 33.9814 38.0381C34.9791 37.6503 35.6906 37.1865 36.4385 36.4385C37.1865 35.6906 37.6503 34.9791 38.0381 33.9814C38.3308 33.2282 38.6784 32.0958 38.7734 30.0117C38.8763 27.7582 38.8984 27.0818 38.8984 21.375C38.8984 15.6676 38.8763 14.9912 38.7734 12.7373C38.6784 10.6535 38.3308 9.52173 38.0381 8.76855C37.6503 7.77082 37.1865 7.05848 36.4385 6.31055C35.6907 5.56278 34.9789 5.0996 33.9814 4.71191C33.2282 4.41919 32.0958 4.07062 30.0117 3.97559C27.7582 3.87277 27.0818 3.85156 21.375 3.85156ZM21.375 10.3984C27.437 10.3984 32.3514 15.3129 32.3516 21.375C32.3516 27.4371 27.4371 32.3516 21.375 32.3516C15.3129 32.3514 10.3984 27.437 10.3984 21.375C10.3986 15.313 15.313 10.3986 21.375 10.3984ZM21.375 14.25C17.4399 14.25 14.25 17.4399 14.25 21.375C14.25 25.31 17.4399 28.5 21.375 28.5C25.31 28.5 28.5 25.31 28.5 21.375C28.5 17.4399 25.31 14.25 21.375 14.25ZM32.7852 7.40039C34.2015 7.40063 35.3495 8.54849 35.3496 9.96484C35.3496 11.3813 34.2016 12.53 32.7852 12.5303C31.3686 12.5303 30.2197 11.3815 30.2197 9.96484C30.2199 8.54835 31.3687 7.40039 32.7852 7.40039Z" fill="#3A3A3C"/>
</svg>
