<svg width="43" height="38" viewBox="0 0 43 38" fill="none" xmlns="http://www.w3.org/2000/svg">
<path d="M9.41113 38H1.0791V12.1855H9.41113V38ZM32.1758 11.9375C38.0976 11.9375 42.75 15.6508 42.75 23.6465V38H33.3018V24.6416C33.3018 21.1451 31.824 18.758 28.5742 18.7578C26.0886 18.7578 24.706 20.3686 24.0625 21.9209C23.8212 22.4781 23.8584 23.255 23.8584 24.0312V38H14.498C14.4984 37.9393 14.6185 14.3338 14.498 12.1855H23.8584V16.2373C24.4114 14.4659 27.4026 11.9375 32.1758 11.9375ZM5.08984 0C8.16383 0 10.0539 1.92707 10.1143 4.47461C10.1143 6.97594 8.16399 8.95697 5.03223 8.95703H4.97168C1.95564 8.957 0.000199473 6.9836 0 4.48242C0 1.93239 2.01331 1.68814e-05 5.08984 0Z" fill="#3A3A3C"/>
</svg>
