<svg width="247" height="188" fill="none" xmlns="http://www.w3.org/2000/svg"><path d="M123.214.1C67.596.1 18.04 42.883.214 64.274h21.39c40.644-40.644 85.613-46.9 101.61-48.13 34.76-2.674 83.782 30.304 101.608 48.13h21.392C228.388 42.883 178.831.1 123.214.1zM123.214 128.448c-55.618 0-105.174-42.783-123-64.174h21.39c40.644 40.643 85.613 46.9 101.61 48.13 34.76 2.674 83.782-30.304 101.608-48.13h21.392c-17.826 21.391-67.383 64.174-123 64.174z" fill="#3A3A3C" stroke="#3A3A3C" stroke-width=".2"/><circle cx="123.214" cy="64.274" r="31.587" fill="#3A3A3C" stroke="#3A3A3C"/><path stroke="#3A3A3C" stroke-width="4" d="M125.214 85.665L125.214 117.752M125.214 10.796L125.214 42.883M157.029 11.802L135.638 48.535"/><path transform="scale(-1 1) rotate(-59.786 24.157 193.602)" stroke="#3A3A3C" stroke-width="4" d="M0 -2L42.508 -2"/><path stroke="#3A3A3C" stroke-width="4" d="M198.893 28.668L140.067 54.706"/><path transform="scale(-1 1) rotate(-23.875 144.385 508.622)" stroke="#3A3A3C" stroke-width="4" d="M0 -2L53.478 -2"/><path stroke="#3A3A3C" stroke-width="4" d="M235.518 66.274L133.909 66.274"/><mask id="a" maskUnits="userSpaceOnUse" x="59.648" y="142.796" width="137" height="36" fill="#000"><path fill="#fff" d="M59.648 142.796H196.648V178.796H59.648z"/><path d="M88.573 148.468H77.246v29.328h-5.424v-29.328H60.444v-4.752h28.128v4.752zm-2.472 21.984c0-1.6.448-2.992 1.344-4.176.928-1.216 2.192-2.144 3.792-2.784 1.6-.672 3.456-1.008 5.568-1.008 1.12 0 2.256.08 3.408.24 1.184.16 2.224.416 3.12.768v-1.584c0-1.76-.528-3.136-1.584-4.128s-2.576-1.488-4.56-1.488c-1.408 0-2.736.256-3.984.768-1.248.48-2.576 1.168-3.984 2.064l-1.776-3.552c1.664-1.12 3.328-1.952 4.992-2.496a17.337 17.337 0 015.328-.816c3.36 0 6 .896 7.92 2.688 1.952 1.76 2.928 4.272 2.928 7.536v9.36c0 .608.096 1.04.288 1.296.224.256.592.4 1.104.432v4.224a11.588 11.588 0 01-2.256.24c-1.12 0-1.968-.272-2.544-.816-.576-.544-.912-1.184-1.008-1.92l-.144-1.44c-1.088 1.408-2.48 2.496-4.176 3.264-1.696.768-3.408 1.152-5.136 1.152-1.664 0-3.152-.336-4.464-1.008-1.312-.704-2.336-1.648-3.072-2.832-.736-1.184-1.104-2.512-1.104-3.984zm15.984 1.536c.384-.416.688-.832.912-1.248.224-.416.336-.784.336-1.104v-2.88a13.676 13.676 0 00-2.832-.768 15.389 15.389 0 00-2.928-.288c-1.92 0-3.488.384-4.704 1.152-1.184.768-1.776 1.824-1.776 3.168 0 .736.192 1.44.576 2.112a4.715 4.715 0 001.728 1.632c.768.416 1.712.624 2.832.624a8.395 8.395 0 003.312-.672c1.056-.448 1.904-1.024 2.544-1.728zm13-28.272l10.272 27.504 10.224-27.504h5.712l-13.392 34.08h-5.088l-13.44-34.08h5.712zm27.444 24.336v-15.36h5.28v14.304c0 2.24.4 3.936 1.2 5.088.832 1.12 2.032 1.68 3.6 1.68.992 0 1.952-.208 2.88-.624a7.965 7.965 0 002.592-1.824c.8-.832 1.44-1.824 1.92-2.976v-15.648h5.28v19.152c0 .608.112 1.04.336 1.296.224.256.592.4 1.104.432v4.224c-.544.096-.992.16-1.344.192a11.15 11.15 0 01-1.008.048c-.96 0-1.76-.256-2.4-.768a3.082 3.082 0 01-1.104-2.064l-.096-2.496c-1.12 1.824-2.576 3.216-4.368 4.176-1.792.928-3.76 1.392-5.904 1.392-2.624 0-4.608-.864-5.952-2.592-1.344-1.728-2.016-4.272-2.016-7.632zm40.866 10.224c-1.952 0-3.728-.336-5.328-1.008a13.137 13.137 0 01-4.08-2.832 13.512 13.512 0 01-2.688-4.128 13.686 13.686 0 01-.912-4.992c0-2.368.544-4.528 1.632-6.48a12.502 12.502 0 014.56-4.752c1.952-1.216 4.24-1.824 6.864-1.824 2.624 0 4.88.608 6.768 1.824 1.92 1.184 3.408 2.752 4.464 4.704a13.013 13.013 0 011.584 6.288c0 .384-.016.752-.048 1.104-.032.32-.064.592-.096.816h-20.112c.096 1.472.496 2.768 1.2 3.888a8.291 8.291 0 002.784 2.592 7.43 7.43 0 003.6.912 7.983 7.983 0 003.984-1.056c1.28-.704 2.144-1.632 2.592-2.784l4.512 1.296c-.544 1.216-1.376 2.32-2.496 3.312-1.088.96-2.384 1.728-3.888 2.304-1.504.544-3.136.816-4.896.816zm-7.536-14.784h15.168c-.096-1.44-.512-2.704-1.248-3.792-.704-1.12-1.616-1.984-2.736-2.592-1.088-.64-2.304-.96-3.648-.96-1.312 0-2.528.32-3.648.96-1.088.608-1.984 1.472-2.688 2.592-.704 1.088-1.104 2.352-1.2 3.792z"/></mask><path d="M88.573 148.468H77.246v29.328h-5.424v-29.328H60.444v-4.752h28.128v4.752zm-2.472 21.984c0-1.6.448-2.992 1.344-4.176.928-1.216 2.192-2.144 3.792-2.784 1.6-.672 3.456-1.008 5.568-1.008 1.12 0 2.256.08 3.408.24 1.184.16 2.224.416 3.12.768v-1.584c0-1.76-.528-3.136-1.584-4.128s-2.576-1.488-4.56-1.488c-1.408 0-2.736.256-3.984.768-1.248.48-2.576 1.168-3.984 2.064l-1.776-3.552c1.664-1.12 3.328-1.952 4.992-2.496a17.337 17.337 0 015.328-.816c3.36 0 6 .896 7.92 2.688 1.952 1.76 2.928 4.272 2.928 7.536v9.36c0 .608.096 1.04.288 1.296.224.256.592.4 1.104.432v4.224a11.588 11.588 0 01-2.256.24c-1.12 0-1.968-.272-2.544-.816-.576-.544-.912-1.184-1.008-1.92l-.144-1.44c-1.088 1.408-2.48 2.496-4.176 3.264-1.696.768-3.408 1.152-5.136 1.152-1.664 0-3.152-.336-4.464-1.008-1.312-.704-2.336-1.648-3.072-2.832-.736-1.184-1.104-2.512-1.104-3.984zm15.984 1.536c.384-.416.688-.832.912-1.248.224-.416.336-.784.336-1.104v-2.88a13.676 13.676 0 00-2.832-.768 15.389 15.389 0 00-2.928-.288c-1.92 0-3.488.384-4.704 1.152-1.184.768-1.776 1.824-1.776 3.168 0 .736.192 1.44.576 2.112a4.715 4.715 0 001.728 1.632c.768.416 1.712.624 2.832.624a8.395 8.395 0 003.312-.672c1.056-.448 1.904-1.024 2.544-1.728zm13-28.272l10.272 27.504 10.224-27.504h5.712l-13.392 34.08h-5.088l-13.44-34.08h5.712zm27.444 24.336v-15.36h5.28v14.304c0 2.24.4 3.936 1.2 5.088.832 1.12 2.032 1.68 3.6 1.68.992 0 1.952-.208 2.88-.624a7.965 7.965 0 002.592-1.824c.8-.832 1.44-1.824 1.92-2.976v-15.648h5.28v19.152c0 .608.112 1.04.336 1.296.224.256.592.4 1.104.432v4.224c-.544.096-.992.16-1.344.192a11.15 11.15 0 01-1.008.048c-.96 0-1.76-.256-2.4-.768a3.082 3.082 0 01-1.104-2.064l-.096-2.496c-1.12 1.824-2.576 3.216-4.368 4.176-1.792.928-3.76 1.392-5.904 1.392-2.624 0-4.608-.864-5.952-2.592-1.344-1.728-2.016-4.272-2.016-7.632zm40.866 10.224c-1.952 0-3.728-.336-5.328-1.008a13.137 13.137 0 01-4.08-2.832 13.512 13.512 0 01-2.688-4.128 13.686 13.686 0 01-.912-4.992c0-2.368.544-4.528 1.632-6.48a12.502 12.502 0 014.56-4.752c1.952-1.216 4.24-1.824 6.864-1.824 2.624 0 4.88.608 6.768 1.824 1.92 1.184 3.408 2.752 4.464 4.704a13.013 13.013 0 011.584 6.288c0 .384-.016.752-.048 1.104-.032.32-.064.592-.096.816h-20.112c.096 1.472.496 2.768 1.2 3.888a8.291 8.291 0 002.784 2.592 7.43 7.43 0 003.6.912 7.983 7.983 0 003.984-1.056c1.28-.704 2.144-1.632 2.592-2.784l4.512 1.296c-.544 1.216-1.376 2.32-2.496 3.312-1.088.96-2.384 1.728-3.888 2.304-1.504.544-3.136.816-4.896.816zm-7.536-14.784h15.168c-.096-1.44-.512-2.704-1.248-3.792-.704-1.12-1.616-1.984-2.736-2.592-1.088-.64-2.304-.96-3.648-.96-1.312 0-2.528.32-3.648.96-1.088.608-1.984 1.472-2.688 2.592-.704 1.088-1.104 2.352-1.2 3.792z" fill="#3A3A3C"/><path d="M88.573 148.468v.25h.25v-.25h-.25zm-11.327 0v-.25h-.25v.25h.25zm0 29.328v.25h.25v-.25h-.25zm-5.424 0h-.25v.25h.25v-.25zm0-29.328h.25v-.25h-.25v.25zm-11.377 0h-.25v.25h.25v-.25zm0-4.752v-.25h-.25v.25h.25zm28.128 0h.25v-.25h-.25v.25zm0 4.752v-.25H77.246v.5h11.328v-.25zm-11.327 0h-.25v29.328h.5v-29.328h-.25zm0 29.328v-.25h-5.424v.5h5.424v-.25zm-5.424 0h.25v-29.328h-.5v29.328h.25zm0-29.328v-.25H60.444v.5h11.377v-.25zm-11.377 0h.25v-4.752h-.5v4.752h.25zm0-4.752v.25h28.128v-.5H60.447v.25zm28.128 0h-.25v4.752h.5v-4.752h-.25zm-1.128 22.56l-.199-.152v.001l.199.151zm3.792-2.784l.093.232.004-.002-.097-.23zm8.976-.768l-.035.247h.001l.034-.247zm3.12.768l-.092.232.342.134v-.366h-.25zm-1.584-5.712l.171-.183-.171.183zm-8.544-.72l.09.233.005-.002-.095-.231zm-3.984 2.064l-.224.111.124.248.234-.148-.134-.211zm-1.776-3.552l-.14-.208-.182.123.098.196.224-.111zm4.992-2.496l-.077-.238.077.238zm13.248 1.872l-.171.182.003.003.168-.185zm3.216 18.192l-.2.15.005.007.007.007.188-.164zm1.104.432h.25v-.235l-.235-.015-.015.25zm0 4.224l.049.245.201-.04v-.205h-.25zm-1.296.192l-.021-.249.021.249zm-3.504-.768l-.172.181.172-.181zm-1.008-1.92l-.249.025.001.007.248-.032zm-.144-1.44l.249-.025-.063-.625-.384.497.198.153zm-4.176 3.264l.103.227-.103-.227zm-9.6.144l-.118.22.004.002.114-.222zm-3.072-2.832l-.212.132.212-.132zm14.88-2.448l-.184-.17-.001.001.185.169zm.912-1.248l.22.118-.22-.118zm.336-3.984h.25v-.171l-.159-.062-.091.233zm-2.832-.768l-.048.245.008.001.04-.246zm-7.632.864l-.134-.212-.002.002.136.21zm-1.2 5.28l-.217.124.004.007.213-.131zm1.728 1.632l-.123.217.004.002.119-.219zm6.144-.048l.097.23-.097-.23zm-13.44-3.264h.25c0-1.55.433-2.888 1.293-4.025l-.2-.151-.199-.151c-.931 1.231-1.394 2.677-1.394 4.327h.25zm1.344-4.176l.199.151c.897-1.175 2.122-2.078 3.686-2.703l-.093-.232-.093-.232c-1.637.654-2.94 1.608-3.898 2.864l.199.152zm3.792-2.784l.097.23c1.563-.657 3.385-.988 5.47-.988v-.5c-2.137 0-4.028.34-5.664 1.027l.097.231zm5.568-1.008v.25c1.108 0 2.232.079 3.373.237l.035-.247.034-.248a25.08 25.08 0 00-3.442-.242v.25zm3.408.24l-.034.247c1.169.158 2.189.41 3.062.753l.092-.232.091-.233c-.918-.361-1.978-.621-3.178-.783l-.033.248zm3.12.768h.25v-1.584h-.5v1.584h.25zm0-1.584h.25c0-1.813-.546-3.261-1.663-4.311l-.171.183-.171.182c.995.935 1.505 2.239 1.505 3.946h.25zm-1.584-4.128l.171-.183c-1.117-1.049-2.707-1.555-4.731-1.555v.5c1.944 0 3.394.485 4.389 1.42l.171-.182zm-4.56-1.488v-.25c-1.44 0-2.8.261-4.08.786l.096.232.095.231a10.145 10.145 0 013.889-.749v-.25zm-3.984.768l-.09-.234c-1.267.488-2.61 1.184-4.028 2.087l.134.211.134.211c1.397-.89 2.71-1.569 3.94-2.042l-.09-.233zm-3.984 2.064l.223-.112-1.776-3.552-.223.112-.224.111 1.776 3.552.224-.111zm-1.776-3.552l.14.207c1.647-1.109 3.29-1.93 4.93-2.466l-.078-.237-.078-.238c-1.689.552-3.373 1.395-5.054 2.526l.14.208zm4.992-2.496l.076.238a17.08 17.08 0 015.252-.804v-.5c-1.881 0-3.683.275-5.405.828l.077.238zm5.328-.816v.25c3.315 0 5.887.883 7.749 2.62l.171-.182.17-.183c-1.978-1.846-4.685-2.755-8.09-2.755v.25zm7.92 2.688l-.168.185c1.888 1.702 2.846 4.139 2.846 7.351h.5c0-3.317-.994-5.904-3.011-7.722l-.167.186zm2.928 7.536h-.25v9.36h.5v-9.36h-.25zm0 9.36h-.25c0 .62.095 1.122.338 1.446l.2-.15.2-.15c-.141-.189-.238-.551-.238-1.146h-.25zm.288 1.296l-.188.164c.286.327.731.483 1.276.517l.016-.249.015-.25c-.478-.03-.769-.162-.931-.347l-.188.165zm1.104.432h-.25v4.224h.5v-4.224h-.25zm0 4.224l-.049-.245c-.473.094-.896.156-1.268.188l.021.249.021.249c.395-.033.837-.099 1.324-.196l-.049-.245zm-1.296.192l-.021-.249c-.38.031-.693.047-.939.047v.5c.265 0 .593-.017.981-.049l-.021-.249zm-.96.048v-.25c-1.083 0-1.859-.263-2.373-.748l-.171.182-.172.181c.639.604 1.558.885 2.716.885v-.25zm-2.544-.816l.171-.182c-.537-.507-.843-1.096-.931-1.771l-.248.033-.248.032c.104.797.469 1.489 1.084 2.069l.172-.181zm-1.008-1.92l.249-.025-.144-1.44-.249.025-.249.025.144 1.44.249-.025zm-.144-1.44l-.198-.153c-1.062 1.374-2.421 2.437-4.081 3.189l.103.228.103.227c1.731-.784 3.156-1.897 4.271-3.338l-.198-.153zm-4.176 3.264l-.103-.228c-1.666.754-3.344 1.13-5.033 1.13v.5c1.766 0 3.513-.393 5.239-1.175l-.103-.227zm-5.136 1.152v-.25c-1.63 0-3.078-.329-4.35-.981l-.114.223-.114.222c1.351.692 2.88 1.036 4.578 1.036v-.25zm-4.464-1.008l.118-.221c-1.276-.684-2.267-1.599-2.978-2.743l-.212.132-.212.132c.76 1.223 1.818 2.197 3.166 2.92l.118-.22zm-3.072-2.832l.212-.132c-.71-1.142-1.066-2.424-1.066-3.852h-.5c0 1.516.38 2.89 1.142 4.116l.212-.132zm14.88-2.448l.184.169c.395-.428.712-.861.948-1.299l-.22-.118-.22-.119a5.932 5.932 0 01-.876 1.197l.184.17zm.912-1.248l.22.118c.235-.436.366-.846.366-1.222h-.5c0 .263-.093.589-.306.985l.22.119zm.336-1.104h.25v-2.88h-.5v2.88h.25zm0-2.88l.091-.233a13.936 13.936 0 00-2.883-.782l-.04.247-.04.246a13.47 13.47 0 012.78.754l.092-.232zm-2.832-.768l.047-.246a15.617 15.617 0 00-2.975-.292v.5c.943 0 1.903.094 2.88.283l.048-.245zm-2.928-.288v-.25c-1.952 0-3.57.39-4.838 1.19l.134.212.133.211c1.165-.736 2.683-1.113 4.57-1.113v-.25zm-4.704 1.152l-.136-.21c-1.251.811-1.89 1.944-1.89 3.378h.5c0-1.255.545-2.234 1.662-2.959l-.136-.209zm-1.776 3.168h-.25c0 .781.204 1.528.609 2.236l.217-.124.217-.124a3.95 3.95 0 01-.543-1.988h-.25zm.576 2.112l-.213.131a4.965 4.965 0 001.818 1.718l.123-.217.123-.218c-.702-.397-1.246-.912-1.639-1.546l-.212.132zm1.728 1.632l-.12.219c.814.441 1.802.655 2.952.655v-.5c-1.09 0-1.99-.203-2.713-.594l-.12.22zm2.832.624v.25a8.648 8.648 0 003.41-.692l-.098-.23-.098-.23a8.16 8.16 0 01-3.214.652v.25zm3.312-.672l.097.23c1.083-.459 1.963-1.055 2.632-1.79l-.185-.168-.185-.169c-.611.673-1.427 1.23-2.457 1.667l.098.23zm15.544-30l.234-.088-.061-.162h-.173v.25zm10.272 27.504l-.234.087.234.629.234-.629-.234-.087zm10.224-27.504v-.25h-.174l-.06.163.234.087zm5.712 0l.233.091.134-.341h-.367v.25zm-13.392 34.08v.25h.17l.063-.159-.233-.091zm-5.088 0l-.233.091.063.159h.17v-.25zm-13.44-34.08v-.25h-.367l.134.341.233-.091zm5.712 0l-.234.087 10.272 27.504.234-.087.234-.088-10.272-27.504-.234.088zm10.272 27.504l.234.087 10.224-27.504-.234-.087-.234-.087-10.224 27.504.234.087zm10.224-27.504v.25h5.712v-.5h-5.712v.25zm5.712 0l-.233-.092-13.392 34.08.233.092.233.091 13.392-34.08-.233-.091zm-13.392 34.08v-.25h-5.088v.5h5.088v-.25zm-5.088 0l.232-.092-13.44-34.08-.232.092-.233.091 13.44 34.08.233-.091zm-13.44-34.08v.25h5.712v-.5h-5.712v.25zm33.156 8.976v-.25h-.25v.25h.25zm5.28 0h.25v-.25h-.25v.25zm1.2 19.392l-.206.142.005.007.201-.149zm6.48 1.056l-.1-.23-.003.002.103.228zm2.592-1.824l-.181-.174v.001l.181.173zm1.92-2.976l.23.096.02-.046v-.05h-.25zm0-15.648v-.25h-.25v.25h.25zm5.28 0h.25v-.25h-.25v.25zm.336 20.448l.188-.165-.188.165zm1.104.432h.25v-.235l-.235-.015-.015.25zm0 4.224l.043.246.207-.037v-.209h-.25zm-1.344.192l-.023-.249.023.249zm-3.408-.72l-.162.19.005.005.157-.195zm-1.104-2.064l-.25.009v.01l.001.009.249-.028zm-.096-2.496l.249-.01-.031-.823-.431.702.213.131zm-4.368 4.176l.115.222.003-.002-.118-.22zm-11.856-1.2l.197-.154-.197.154zm-2.016-7.632h.25v-15.36h-.5v15.36h.25zm0-15.36v.25h5.28v-.5h-5.28v.25zm5.28 0h-.25v14.304h.5v-14.304h-.25zm0 14.304h-.25c0 2.263.402 4.018 1.244 5.23l.206-.142.205-.143c-.758-1.092-1.155-2.728-1.155-4.945h-.25zm1.2 5.088l-.201.149c.885 1.192 2.165 1.781 3.801 1.781v-.5c-1.501 0-2.621-.531-3.4-1.579l-.2.149zm3.6 1.68v.25a7.22 7.22 0 002.982-.646l-.102-.228-.103-.228a6.73 6.73 0 01-2.777.602v.25zm2.88-.624l.099.229a8.23 8.23 0 002.673-1.88l-.18-.173-.181-.173a7.713 7.713 0 01-2.511 1.767l.1.23zm2.592-1.824l.18.173c.823-.856 1.479-1.875 1.97-3.053l-.23-.096-.231-.097c-.469 1.126-1.093 2.091-1.87 2.899l.181.174zm1.92-2.976h.25v-15.648h-.5v15.648h.25zm0-15.648v.25h5.28v-.5h-5.28v.25zm5.28 0h-.25v19.152h.5v-19.152h-.25zm0 19.152h-.25c0 .625.112 1.134.397 1.46l.189-.164.188-.165c-.163-.186-.274-.541-.274-1.131h-.25zm.336 1.296l-.189.164c.286.327.732.483 1.277.517l.016-.249.015-.25c-.479-.03-.769-.162-.931-.347l-.188.165zm1.104.432h-.25v4.224h.5v-4.224h-.25zm0 4.224l-.044-.247c-.54.096-.981.159-1.323.19l.023.249.022.249c.362-.033.817-.099 1.365-.195l-.043-.246zm-1.344.192l-.023-.249c-.345.031-.674.047-.985.047v.5c.328 0 .671-.017 1.03-.049l-.022-.249zm-1.008.048v-.25c-.914 0-1.656-.243-2.244-.714l-.156.196-.157.195c.692.553 1.55.823 2.557.823v-.25zm-2.4-.768l.161-.191a2.836 2.836 0 01-1.017-1.902l-.248.029-.249.028a3.333 3.333 0 001.191 2.226l.162-.19zm-1.104-2.064l.249-.01-.096-2.496-.249.01-.25.009.096 2.496.25-.009zm-.096-2.496l-.213-.131c-1.099 1.788-2.523 3.148-4.274 4.086l.119.221.118.22c1.833-.982 3.321-2.406 4.463-4.266l-.213-.13zm-4.368 4.176l-.115-.222c-1.755.908-3.683 1.364-5.789 1.364v.5c2.181 0 4.189-.473 6.019-1.42l-.115-.222zm-5.904 1.392v-.25c-2.564 0-4.468-.841-5.755-2.496l-.197.154-.198.153c1.401 1.801 3.466 2.689 6.15 2.689v-.25zm-5.952-2.592l.197-.154c-1.296-1.666-1.963-4.146-1.963-7.478h-.5c0 3.387.676 5.995 2.068 7.785l.198-.153zm33.522 1.584l-.103.228.006.002.097-.23zm-4.08-2.832l-.182.172.002.002.18-.174zm-2.688-4.128l-.234.09.003.006.231-.096zm.72-11.472l.218.121.001-.001-.219-.12zm4.56-4.752l.129.213.003-.001-.132-.212zm13.632 0l-.136.21.004.002.132-.212zm4.464 4.704l.219-.119-.219.119zm1.536 7.392l.248.025.001-.003-.249-.022zm-.096.816v.25h.216l.031-.215-.247-.035zm-20.112 0v-.25h-.267l.017.266.25-.016zm1.2 3.888l-.212.133.004.007.208-.14zm2.784 2.592l-.125.217.005.002.12-.219zm7.584-.144l-.121-.219-.002.001.123.218zm2.592-2.784l.069-.241-.22-.063-.082.213.233.091zm4.512 1.296l.228.102.117-.263-.276-.08-.069.241zm-2.496 3.312l.165.187-.165-.187zm-3.888 2.304l.085.235.004-.002-.089-.233zm-12.432-13.968l-.25-.017-.018.267h.268v-.25zm15.168 0v.25h.267l-.018-.267-.249.017zm-1.248-3.792l-.212.133.004.007.208-.14zm-2.736-2.592l-.127.215.007.004.12-.219zm-7.296 0l.122.218.002-.001-.124-.217zm-2.688 2.592l.209.135.002-.002-.211-.133zm6.336 18.576v-.25c-1.923 0-3.666-.331-5.232-.989l-.096.231-.097.23c1.634.687 3.443 1.028 5.425 1.028v-.25zm-5.328-1.008l.102-.228a12.89 12.89 0 01-4.003-2.779l-.179.175-.18.174a13.415 13.415 0 004.157 2.886l.103-.228zm-4.08-2.832l.181-.172a13.289 13.289 0 01-2.639-4.052l-.23.096-.231.096a13.766 13.766 0 002.737 4.204l.182-.172zm-2.688-4.128l.233-.091c-.597-1.538-.895-3.171-.895-4.901h-.5c0 1.789.309 3.484.928 5.082l.234-.09zm-.912-4.992h.25c0-2.328.534-4.446 1.6-6.359l-.218-.121-.219-.122c-1.11 1.991-1.663 4.194-1.663 6.602h.25zm1.632-6.48l.219.12a12.25 12.25 0 014.47-4.659l-.129-.213-.13-.214a12.76 12.76 0 00-4.65 4.845l.22.121zm4.56-4.752l.132.212c1.907-1.188 4.148-1.786 6.732-1.786v-.5c-2.664 0-5 .617-6.997 1.861l.133.213zm6.864-1.824v.25c2.584 0 4.791.598 6.632 1.784l.136-.21.135-.211c-1.935-1.246-4.24-1.863-6.903-1.863v.25zm6.768 1.824l-.132.212c1.884 1.162 3.341 2.698 4.376 4.611l.22-.119.219-.119c-1.077-1.991-2.596-3.592-4.552-4.798l-.131.213zm4.464 4.704l-.22.119a12.762 12.762 0 011.554 6.169h.5c0-2.281-.539-4.418-1.615-6.407l-.219.119zm1.584 6.288h-.25c0 .377-.016.737-.047 1.081l.249.023.249.022c.032-.36.049-.735.049-1.126h-.25zm-.048 1.104l-.249-.025c-.032.318-.064.586-.095.805l.248.036.247.035c.033-.229.065-.504.097-.826l-.248-.025zm-.096.816v-.25h-20.112v.5h20.112v-.25zm-20.112 0l-.25.016c.098 1.509.509 2.846 1.238 4.005l.212-.133.211-.133c-.679-1.081-1.068-2.336-1.162-3.772l-.249.017zm1.2 3.888l-.208.14a8.56 8.56 0 002.868 2.669l.124-.217.124-.217a8.036 8.036 0 01-2.701-2.515l-.207.14zm2.784 2.592l-.12.219a7.683 7.683 0 003.72.943v-.5a7.18 7.18 0 01-3.481-.882l-.119.22zm3.6.912v.25a8.229 8.229 0 004.106-1.089l-.122-.217-.123-.218a7.736 7.736 0 01-3.861 1.024v.25zm3.984-1.056l.12.219c1.322-.727 2.232-1.696 2.705-2.913l-.233-.09-.233-.091c-.423 1.088-1.242 1.974-2.48 2.656l.121.219zm2.592-2.784l-.069.24 4.512 1.296.069-.24.069-.241-4.512-1.296-.069.241zm4.512 1.296l-.229-.102c-.527 1.179-1.337 2.255-2.433 3.227l.166.187.165.187c1.144-1.013 1.999-2.145 2.559-3.397l-.228-.102zm-2.496 3.312l-.166-.188c-1.063.938-2.333 1.692-3.812 2.258l.09.234.089.233c1.529-.585 2.851-1.368 3.964-2.35l-.165-.187zm-3.888 2.304l-.085-.235c-1.475.533-3.078.801-4.811.801v.5c1.786 0 3.447-.276 4.981-.831l-.085-.235zm-12.432-13.968v.25h15.168v-.5h-15.168v.25zm15.168 0l.249-.017c-.099-1.48-.527-2.787-1.29-3.915l-.207.14-.208.14c.709 1.048 1.113 2.268 1.206 3.668l.25-.016zm-1.248-3.792l.211-.133c-.726-1.155-1.669-2.05-2.828-2.679l-.119.22-.12.219c1.081.587 1.962 1.421 2.644 2.506l.212-.133zm-2.736-2.592l.126-.216c-1.129-.664-2.389-.994-3.774-.994v.5c1.302 0 2.474.309 3.521.925l.127-.215zm-3.648-.96v-.25a7.475 7.475 0 00-3.772.993l.124.217.124.217a6.975 6.975 0 013.524-.927v-.25zm-3.648.96l-.122-.219c-1.127.63-2.053 1.524-2.778 2.678l.212.133.211.133c.683-1.087 1.549-1.921 2.599-2.507l-.122-.218zm-2.688 2.592l-.21-.136c-.73 1.127-1.141 2.434-1.24 3.911l.25.017.249.016c.094-1.402.482-2.624 1.16-3.673l-.209-.135z" fill="#3A3A3C" mask="url(#a)"/></svg>