<svg width="63" height="48" fill="none" xmlns="http://www.w3.org/2000/svg"><path d="M31.5 0C17.256 0 4.565 10.957 0 16.435h5.478C15.887 6.026 27.403 4.424 31.5 4.109c8.902-.685 21.456 7.76 26.022 12.326H63C58.435 10.957 45.743 0 31.5 0z" fill="#F5F1E8"/><path d="M31.5 32.87C17.256 32.87 4.565 21.913 0 16.435h5.478C15.887 26.844 27.403 28.445 31.5 28.76c8.902.685 21.456-7.761 26.022-12.326H63C58.435 21.913 45.743 32.87 31.5 32.87z" fill="#F5F1E8"/><circle cx="31.5" cy="16.435" r="7.717" fill="#F5F1E8" stroke="#F5F1E8"/><path stroke="#F5F1E8" stroke-width="2" d="M32.5 21.913L32.5 30.13M32.5 2.739L32.5 10.957M40.581 3.242L35.103 12.65"/><path transform="scale(-1 1) rotate(-59.786 6.192 49.52)" stroke="#F5F1E8" stroke-width="2" d="M0 -1L10.886 -1"/><path stroke="#F5F1E8" stroke-width="2" d="M51.079 7.762L36.013 14.43"/><path transform="scale(-1 1) rotate(-23.875 36.944 130.115)" stroke="#F5F1E8" stroke-width="2" d="M0 -1L13.696 -1"/><path stroke="#F5F1E8" stroke-width="2" d="M60.261 17.435L34.239 17.435"/><path d="M19.54 36.463h-3.776v9.776h-1.808v-9.776h-3.792V34.88h9.376v1.584zm-.824 7.328c0-.533.15-.997.448-1.392.31-.405.73-.715 1.264-.928.533-.224 1.152-.336 1.856-.336.373 0 .752.027 1.136.08.395.053.741.139 1.04.256v-.528c0-.587-.176-1.045-.528-1.376-.352-.33-.859-.496-1.52-.496-.47 0-.912.086-1.328.256-.416.16-.859.39-1.328.688l-.592-1.184A6.746 6.746 0 0120.828 38a5.78 5.78 0 011.776-.272c1.12 0 2 .299 2.64.896.65.587.976 1.424.976 2.512v3.12c0 .203.032.347.096.432.075.086.197.134.368.144v1.408a3.847 3.847 0 01-.752.08c-.373 0-.656-.09-.848-.272a1.048 1.048 0 01-.336-.64l-.048-.48c-.363.47-.827.832-1.392 1.088a4.116 4.116 0 01-1.712.384c-.555 0-1.05-.112-1.488-.336a2.654 2.654 0 01-1.024-.944 2.464 2.464 0 01-.368-1.328zm5.328.512c.128-.139.23-.277.304-.416a.797.797 0 00.112-.368v-.96a4.565 4.565 0 00-.944-.256 5.129 5.129 0 00-.976-.096c-.64 0-1.163.128-1.568.384-.395.256-.592.608-.592 1.056 0 .245.064.48.192.704.139.224.33.406.576.544.256.139.57.208.944.208.384 0 .752-.075 1.104-.224a2.38 2.38 0 00.848-.576zm4.333-9.424l3.424 9.168 3.408-9.168h1.904L32.65 46.24h-1.696l-4.48-11.36h1.904zm9.148 8.112v-5.12h1.76v4.768c0 .747.134 1.312.4 1.696.278.373.678.56 1.2.56.33 0 .65-.07.96-.208.32-.139.608-.341.864-.608.267-.277.48-.608.64-.992v-5.216h1.76v6.384c0 .203.038.347.112.432.075.086.198.134.368.144v1.408c-.181.032-.33.053-.448.064-.117.01-.23.016-.336.016-.32 0-.586-.085-.8-.256a1.027 1.027 0 01-.368-.688l-.032-.832a3.793 3.793 0 01-1.456 1.392 4.214 4.214 0 01-1.968.464c-.874 0-1.536-.288-1.984-.864-.448-.576-.672-1.424-.672-2.544zM51.147 46.4c-.65 0-1.242-.112-1.776-.336a4.378 4.378 0 01-1.36-.944 4.505 4.505 0 01-.896-1.376 4.563 4.563 0 01-.304-1.664c0-.79.182-1.51.544-2.16.363-.661.87-1.19 1.52-1.584.65-.405 1.414-.608 2.288-.608.875 0 1.627.203 2.256.608.64.395 1.136.917 1.488 1.568a4.338 4.338 0 01.512 2.464c-.01.107-.021.198-.032.272h-6.704c.032.49.166.923.4 1.296.246.363.555.65.928.864.374.203.774.304 1.2.304.47 0 .912-.117 1.328-.352.427-.234.715-.544.864-.928l1.504.432a3.245 3.245 0 01-.832 1.104c-.362.32-.794.576-1.296.768a4.762 4.762 0 01-1.632.272zm-2.512-4.928h5.056a2.51 2.51 0 00-.416-1.264 2.44 2.44 0 00-.912-.864 2.353 2.353 0 00-1.216-.32 2.48 2.48 0 00-2.112 1.184 2.604 2.604 0 00-.4 1.264z" fill="#F5F1E8"/></svg>