<svg width="247" height="129" fill="none" xmlns="http://www.w3.org/2000/svg"><path d="M123.213.1C67.596.1 18.04 42.883.213 64.274h21.392c40.643-40.644 85.612-46.9 101.608-48.13 34.761-2.674 83.783 30.304 101.609 48.13h21.391C228.387 42.883 178.831.1 123.213.1zM123.213 128.448c-55.617 0-105.173-42.783-123-64.174h21.392c40.643 40.643 85.612 46.9 101.608 48.13 34.761 2.674 83.783-30.304 101.609-48.13h21.391c-17.826 21.391-67.382 64.174-123 64.174z" fill="#3A3A3C" stroke="#3A3A3C" stroke-width=".2"/><circle cx="123.213" cy="64.274" r="31.587" fill="#3A3A3C" stroke="#3A3A3C"/><path stroke="#3A3A3C" stroke-width="4" d="M125.213 85.665L125.213 117.752M125.213 10.796L125.213 42.883M157.029 11.802L135.637 48.535"/><path transform="scale(-1 1) rotate(-59.786 24.158 193.601)" stroke="#3A3A3C" stroke-width="4" d="M0 -2L42.508 -2"/><path stroke="#3A3A3C" stroke-width="4" d="M198.892 28.668L140.066 54.706"/><path transform="scale(-1 1) rotate(-23.875 144.385 508.622)" stroke="#3A3A3C" stroke-width="4" d="M0 -2L53.478 -2"/><path stroke="#3A3A3C" stroke-width="4" d="M235.518 66.274L133.909 66.274"/></svg>