<svg width="81" height="95" fill="none" xmlns="http://www.w3.org/2000/svg"><circle cx="37.244" cy="35" r="33.5" stroke="#A77B5B" stroke-width="3"/><circle cx="37.244" cy="35" r="24.5" stroke="#A77B5B" stroke-width="3"/><path d="M12.244 58.5l-9 16 10-2c2.4-.8 3.333.667 3.5 1.5l3.5 10 9-15.5h3.5l-10.5 18c-1.6 2.4-3.334 1-4 0l-4-11-11.5 2c-2.8 0-2.833-2.333-2.5-3.5l10-17.5 2 2zM45.248 68.569l9.02 15.989 3.471-9.59c.56-2.466 2.298-2.504 3.097-2.215l10.366 2.189-8.592-15.73 1.814-2.993 9.952 18.308c1.224 2.612-.872 3.37-2.073 3.421l-11.48-2.28-4.25 10.872c-1.45 2.395-3.463 1.214-4.288.324L42.5 69.243l2.747-.674zM36.244 46c-3.2 3.2-6 1.333-7 0l-7-9c-.667-1-1.4-3.5 1-5.5s4.667-.5 5.5.5l4 5 13.5-13.5c1.167-.5 3.9-1.1 5.5.5s1.333 4 1 5l-16.5 17z" fill="#A77B5B" stroke="#A77B5B" stroke-width=".2"/><path d="M31.744 44.5c.8.4 1.333.167 1.5 0l16.5-16.5c.166-.167.4-.7 0-1.5s-1.5-.667-2-.5l-14 14c-.8.8-1.667.333-2 0l-4.5-5.5c-.334-.333-1.2-.9-2-.5s-.667 1.5-.5 2l7 8.5z" fill="#F5F1E8" stroke="#F5F1E8" stroke-width=".2"/></svg>