<svg width="56" height="46" fill="none" xmlns="http://www.w3.org/2000/svg"><rect width="56" height="46" rx="10" fill="#F5F1E8"/><path d="M42.048 13.022l-5.07-5.07a5.375 5.375 0 00-3.798-1.577H21.82a5.375 5.375 0 00-3.798 1.577l-5.07 5.07a5.375 5.375 0 00-1.577 3.798v16.43a5.375 5.375 0 005.375 5.375h21.5a5.375 5.375 0 005.375-5.375V16.82a5.375 5.375 0 00-1.577-3.798zM27.5 29.667a7.167 7.167 0 01-7.167-7.167 1.792 1.792 0 013.584 0 3.583 3.583 0 107.166 0 1.792 1.792 0 013.584 0 7.167 7.167 0 01-7.167 7.167zM17.485 13.542l3.063-3.064a1.881 1.881 0 011.272-.52h11.36c.474.007.928.192 1.272.52l3.063 3.064h-20.03z" fill="#000"/></svg>