<svg width="103" height="101" fill="none" xmlns="http://www.w3.org/2000/svg"><path d="M74.5 91v5.5c-1.2 1.2-2.167.5-2.5 0l-11.5-14c-1.6-1.2-.667-2.833 0-3.5L72 65c1.6-2 2.667-.833 3 0v6h9l.114-.007L75 55.5c-2-2-.833-3.167 0-3.5l14-8.5c2-1.6 3.167-.333 3.5.5l9.5 17c2 2.8.017 7.5-1.224 9.5l-6.276 14c-2 4.8-8.5 6.333-11.5 6.5h-8.5z" fill="#A77B5B"/><path d="M75 52s0 0 0 0zm0 0c-.833.333-2 1.5 0 3.5l10 17 15.776-2M75 52l14-8.5c2-1.6 3.167-.333 3.5.5l9.5 17c2 2.8.017 7.5-1.224 9.5m0 0l-6.276 14c-2 4.8-8.5 6.333-11.5 6.5h-8.5v5.5c-1.2 1.2-2.167.5-2.5 0l-11.5-14c-1.6-1.2-.667-2.833 0-3.5L72 65c1.6-2 2.667-.833 3 0v6h9l17-1-.224.5z" stroke="#A77B5B" stroke-width=".2"/><path d="M19.34 51.987l-4.786-2.711c-.453-1.636.633-2.132 1.232-2.175l17.85-3.104c1.833-.8 2.794.817 3.045 1.725l6.512 16.908c.95 2.378-.59 2.73-1.48 2.61l-5.22-2.958-4.437 7.83-.05.102 17.973-.29c2.726-.755 3.166.835 3.045 1.724l.494 16.371c.406 2.53-1.271 2.92-2.16 2.799l-19.475-.115c-3.422.36-6.534-3.683-7.662-5.749l-9.086-12.362c-3.19-4.106-1.32-10.517.014-13.21l4.19-7.395z" fill="#A77B5B"/><path d="M53.024 71.648s0 0 0 0zm0 0c.12-.889-.319-2.479-3.045-1.725l-19.72.32-6.038 14.711M53.024 71.65l.494 16.37c.406 2.53-1.271 2.92-2.16 2.799l-19.475-.115c-3.422.36-6.534-3.683-7.662-5.749m0 0l-9.086-12.362c-3.19-4.106-1.32-10.517.014-13.21l4.19-7.395-4.785-2.711c-.453-1.636.633-2.132 1.232-2.175l17.85-3.104c1.833-.8 2.794.817 3.045 1.725l6.512 16.908c.95 2.378-.59 2.73-1.48 2.61l-5.22-2.958-4.437 7.83-7.51 15.284-.325-.442z" stroke="#A77B5B" stroke-width=".2"/><path d="M79.746 28.278l4.977-2.342c1.596.575 1.375 1.748 1.064 2.262l-7.77 16.367c-.405 1.958-2.28 1.81-3.168 1.49l-17.564-4.444c-2.49-.597-1.89-2.058-1.277-2.715l5.429-2.555-3.832-8.143-.055-.1L47.412 42.94c-.958 2.661-2.51 2.102-3.167 1.49l-13.652-9.048c-2.3-1.128-1.65-2.723-1.038-3.38L40.892 16.17c1.682-3.002 6.78-3.209 9.117-2.937l15.34-.283c5.195-.234 9.35 4.995 10.778 7.638l3.62 7.691z" fill="#A77B5B"/><path d="M44.245 44.431s0 0 0 0zm0 0c.657.613 2.209 1.171 3.167-1.49l11.124-16.287-8.527-13.422m-5.764 31.2l-13.652-9.049c-2.3-1.128-1.65-2.723-1.038-3.38L40.892 16.17c1.682-3.002 6.78-3.209 9.117-2.937m0 0l15.34-.283c5.195-.234 9.35 4.995 10.778 7.638l3.62 7.691 4.976-2.342c1.596.575 1.375 1.748 1.064 2.262l-7.77 16.367c-.405 1.958-2.28 1.81-3.168 1.49l-17.564-4.444c-2.49-.597-1.89-2.058-1.277-2.715l5.429-2.555-3.832-8.143-8.143-14.956.547-.01z" stroke="#A77B5B" stroke-width=".2"/><path d="M62.5 80.5l10-12V72c0 1.2 1 1.5 1.5 1.5h9c8 0 13-1.667 14.5-2.5l-4 9c-2 6.4-6.5 8-8.5 8H73.5c-1.6 0-2 1.333-2 2v1.5l-9-11z" fill="#D4A574"/><path d="M90.5 46L77 54l10 16.5c12.8-.8 14-5.333 13-7.5l-9.5-17z" fill="#D4A574"/><path d="M62.5 80.5l10-12V72c0 1.2 1 1.5 1.5 1.5h9c8 0 13-1.667 14.5-2.5l-4 9c-2 6.4-6.5 8-8.5 8H73.5c-1.6 0-2 1.333-2 2v1.5l-9-11z" stroke="#D4A574" stroke-width=".2"/><path d="M90.5 46L77 54l10 16.5c12.8-.8 14-5.333 13-7.5l-9.5-17z" stroke="#D4A574" stroke-width=".2"/><path d="M34.39 46.723L39.9 61.34l-3.044-1.725c-1.044-.592-1.798.13-2.045.565l-4.437 7.83c-3.944 6.961-4.958 12.133-4.973 13.849l-5.858-7.917c-4.583-4.895-3.756-9.6-2.77-11.34l5.669-10.005c.789-1.392-.174-2.397-.754-2.726l-1.305-.74 14.007-2.407z" fill="#D4A574"/><path d="M50.603 88.092l-.305-15.69-19.286.567c-5.614 11.53-2.261 14.81.117 15.008l19.474.115z" fill="#D4A574"/><path d="M34.39 46.723L39.9 61.34l-3.044-1.725c-1.044-.592-1.798.13-2.045.565l-4.437 7.83c-3.944 6.961-4.958 12.133-4.973 13.849l-5.858-7.917c-4.583-4.895-3.756-9.6-2.77-11.34l5.669-10.005c.789-1.392-.174-2.397-.754-2.726l-1.305-.74 14.007-2.407z" stroke="#D4A574" stroke-width=".2"/><path d="M50.603 88.092l-.305-15.69-19.286.567c-5.614 11.53-2.261 14.81.117 15.008l19.474.115z" stroke="#D4A574" stroke-width=".2"/><path d="M75.355 43.607l-15.116-3.94 3.167-1.49c1.086-.51.932-1.543.719-1.995l-3.832-8.144c-3.407-7.238-7.044-11.053-8.436-12.055l9.846-.213c6.643-.915 10.006 2.475 10.858 4.285l4.896 10.405c.682 1.448 2.059 1.242 2.662.958l1.357-.638-6.121 12.827z" fill="#D4A574"/><path d="M32.217 32.961l12.986 8.81 10.672-16.075c-6.174-11.24-10.787-10.396-12.322-8.569L32.218 32.961z" fill="#D4A574"/><path d="M75.355 43.607l-15.116-3.94 3.167-1.49c1.086-.51.932-1.543.719-1.995l-3.832-8.144c-3.407-7.238-7.044-11.053-8.436-12.055l9.846-.213c6.643-.915 10.006 2.475 10.858 4.285l4.896 10.405c.682 1.448 2.059 1.242 2.662.958l1.357-.638-6.121 12.827z" stroke="#D4A574" stroke-width=".2"/><path d="M32.217 32.961l12.986 8.81 10.672-16.075c-6.174-11.24-10.787-10.396-12.322-8.569L32.218 32.961z" stroke="#D4A574" stroke-width=".2"/></svg>