<svg width="43" height="36" viewBox="0 0 43 36" fill="none" xmlns="http://www.w3.org/2000/svg">
<path d="M42.75 4.21736C41.1792 4.93269 39.488 5.41644 37.7139 5.63258C39.5256 4.52099 40.9157 2.7584 41.5707 0.658721C39.8744 1.68797 38 2.43676 35.9976 2.83816C34.4017 1.09101 32.1208 0 29.5965 0C24.7562 0 20.8292 4.02695 20.8292 8.99309C20.8292 9.69813 20.9045 10.3826 21.0551 11.0413C13.7657 10.6656 7.30441 7.08898 2.97596 1.64166C2.22068 2.97454 1.78909 4.52099 1.78909 6.1678C1.78909 9.28643 3.3373 12.0397 5.69097 13.653C4.25568 13.6093 2.90069 13.2002 1.71632 12.5311V12.6418C1.71632 17.0007 4.73996 20.6365 8.75476 21.4599C8.01955 21.6709 7.24419 21.7764 6.44374 21.7764C5.87916 21.7764 5.32713 21.7224 4.79266 21.6169C5.90927 25.1884 9.1462 27.7898 12.9853 27.8593C9.98428 30.2729 6.20034 31.7113 2.09271 31.7113C1.3851 31.7113 0.685023 31.6701 0 31.5878C3.8818 34.1352 8.49379 35.625 13.4445 35.625C29.579 35.625 38.399 21.9231 38.399 10.0378C38.399 9.64667 38.3914 9.25555 38.3764 8.87216C40.0902 7.6036 41.5782 6.02113 42.75 4.21736Z" fill="#3A3A3C"/>
</svg>
